<?xml version="1.0" encoding="UTF-8" standalone="no"?>
<svg
   xmlns:dc="http://purl.org/dc/elements/1.1/"
   xmlns:cc="http://creativecommons.org/ns#"
   xmlns:rdf="http://www.w3.org/1999/02/22-rdf-syntax-ns#"
   xmlns:svg="http://www.w3.org/2000/svg"
   xmlns="http://www.w3.org/2000/svg"
   xmlns:sodipodi="http://sodipodi.sourceforge.net/DTD/sodipodi-0.dtd"
   xmlns:inkscape="http://www.inkscape.org/namespaces/inkscape"
   width="675.46301"
   height="136.967"
   version="1.1"
   id="svg12"
   sodipodi:docname="ae_512x512_adaept_tpeada_mirror.svg"
   inkscape:version="0.92.3 (2405546, 2018-03-11)">
  <metadata
     id="metadata18">
    <rdf:RDF>
      <cc:Work
         rdf:about="">
        <dc:format>image/svg+xml</dc:format>
        <dc:type
           rdf:resource="http://purl.org/dc/dcmitype/StillImage" />
        <dc:title></dc:title>
      </cc:Work>
    </rdf:RDF>
  </metadata>
  <defs
     id="defs16" />
  <sodipodi:namedview
     pagecolor="#ffffff"
     bordercolor="#666666"
     borderopacity="1"
     objecttolerance="10"
     gridtolerance="10"
     guidetolerance="10"
     inkscape:pageopacity="0"
     inkscape:pageshadow="2"
     inkscape:window-width="1600"
     inkscape:window-height="837"
     id="namedview14"
     showgrid="false"
     inkscape:zoom="0.4609375"
     inkscape:cx="-1.0295424"
     inkscape:cy="136.717"
     inkscape:window-x="-8"
     inkscape:window-y="-8"
     inkscape:window-maximized="1"
     inkscape:current-layer="svg12" />
  <path
     id="at"
     d="M 67.707,1.502 C 30.728,1.502 0.75,31.418 0.75,68.318 c 0,5.948 1.03,11.61 2.492,17.099 h 27.646 c -2.427,-5.2 -3.88,-10.939 -3.88,-17.052 0,-22.406 18.201,-40.567 40.654,-40.567 22.454,0 40.653,18.161 40.653,40.567 0,22.382 -18.163,40.523 -40.584,40.561 v 26.208 c 15.506,0 29.754,-5.295 41.102,-14.13 v 14.46 h 25.88 V 69.07 h -0.048 v -0.752 c 0,-36.9 -29.979,-66.816 -66.957,-66.816 z"
     inkscape:connector-curvature="0"
     style="fill:none;stroke:#000000;stroke-width:1.5" />
  <path
     id="dp"
     d="m 202.78,136.217 c -37.353,0 -67.637,-30.253 -67.637,-67.568 0,-37.314 30.284,-67.567 67.637,-67.567 15.673,0 30.073,5.353 41.542,14.293 V 0.75 h 26.143 v 67.14 h -0.049 v 0.76 c 0,37.314 -30.284,67.567 -67.637,67.567 z m -0.049,-26.59 c 22.681,0 41.067,-18.368 41.067,-41.025 0,-22.657 -18.385,-41.025 -41.067,-41.025 -22.68,0 -41.067,18.368 -41.067,41.025 0,22.657 18.387,41.025 41.067,41.025 z"
     inkscape:connector-curvature="0"
     style="fill:none;stroke:#000000;stroke-width:1.5" />
  <g
     transform="translate(269.998,0.75)"
     id="g8"
     style="fill:none;stroke:#000000">
    <path
       d="m 45.633,33.358 h 10e-4 -10e-4 C 22.956,33.425 3.653,50.729 0.74,67.815 c 0.436,33.216 24.595,65.526 65.236,66.88 33.141,1.104 68.967,-26.54 68.749,-68.355 l -0.019,0.014 c -6.157,39.118 -44.371,59.185 -68.47,59.098 C 34.153,125.381 9.432,100.204 9.432,67.737 H 9.406 c 5.72,-16.995 24.07,-29.236 42.537,-25.953 9.222,2.25 9.294,9.095 9.484,16.643 -5.5,0.106 -11.177,-0.565 -16.253,-0.114 -14.325,2.204 -23.798,7.04 -24.052,21.934 0.362,11.5 8.89,20.227 19.262,20.37 11.677,-0.06 19.833,-5.19 26.55,-13.053 L 69.349,44.477 C 63.341,35.563 56.875,33.395 45.632,33.363 Z m 6.527,33.194 c 2.932,0 5.845,0.132 8.598,0.042 0.068,5.133 0.547,10.237 2.174,14.794 C 55.226,87.532 42.936,94.55 34.546,87.596 30.701,83.371 30.317,76.246 34.022,72.319 39.166,67.204 45.71,66.553 52.16,66.551 Z"
       id="path4"
       inkscape:connector-curvature="0"
       style="stroke-width:1.5" />
    <path
       d="M 66.948,0.74 C 36.344,0.755 0.745,25.62 0.741,67.815 9.46,28.267 34.282,11.807 66.11,9.586 c 34.437,1.142 59.184,31.806 60.389,57.011 -4.76,17.288 -19.11,24.634 -32.708,25.321 C 80.649,91.423 71.843,83.192 72.367,66.238 l 43.324,0.229 c 0.048,-8.787 -1.635,-19.042 -6.541,-25.37 -4.231,-5.173 -10.367,-7.79 -18.474,-7.79 -8.598,0.37 -15.605,4.36 -21.329,10.772 l -2.533,43.359 c 7.4,7.66 17.94,11.833 27.185,11.895 21.173,0 37.12,-15.446 40.708,-32.984 C 134.25,29.783 103.887,0.72 66.948,0.739 Z m 23.978,40.682 c 10.48,0.492 14.802,7.384 15.891,16.62 H 73.102 c 1.57,-9.82 8.643,-16.48 17.824,-16.62 z"
       id="path6"
       inkscape:connector-curvature="0"
       style="stroke-width:1.5" />
  </g>
  <path
     id="pd"
     d="m 472.828,0.75 c 37.352,0 67.637,30.253 67.637,67.567 0,37.314 -30.285,67.567 -67.638,67.567 -15.673,0 -30.073,-5.353 -41.542,-14.292 v 14.625 h -26.142 v -67.14 h 0.048 v -0.76 c 0,-37.314 30.284,-67.567 67.638,-67.567 z m 0.048,26.59 c -22.68,0 -41.067,18.367 -41.067,41.025 0,22.657 18.386,41.024 41.067,41.024 22.68,0 41.067,-18.367 41.067,-41.024 0,-22.658 -18.386,-41.025 -41.067,-41.025 z"
     inkscape:connector-curvature="0"
     style="fill:none;stroke:#000000;stroke-width:1.5" />
  <path
     id="ta"
     d="m 607.756,135.465 c 36.978,0 66.957,-29.916 66.957,-66.816 0,-5.949 -1.03,-11.61 -2.492,-17.1 h -27.646 c 2.427,5.2 3.88,10.94 3.88,17.053 0,22.406 -18.202,40.567 -40.655,40.567 -22.453,0 -40.652,-18.161 -40.652,-40.567 0,-22.382 18.163,-40.523 40.583,-40.562 V 1.833 c -15.505,0 -29.754,5.295 -41.101,14.13 V 1.503 h -25.88 v 66.393 h 0.048 v 0.753 c 0,36.9 29.978,66.816 66.956,66.816 z"
     inkscape:connector-curvature="0"
     style="fill:none;stroke:#000000;stroke-width:1.5" />
</svg>
