<?xml version="1.0" encoding="UTF-8" standalone="no"?>
<svg
   xmlns:dc="http://purl.org/dc/elements/1.1/"
   xmlns:cc="http://creativecommons.org/ns#"
   xmlns:rdf="http://www.w3.org/1999/02/22-rdf-syntax-ns#"
   xmlns:svg="http://www.w3.org/2000/svg"
   xmlns="http://www.w3.org/2000/svg"
   xmlns:sodipodi="http://sodipodi.sourceforge.net/DTD/sodipodi-0.dtd"
   xmlns:inkscape="http://www.inkscape.org/namespaces/inkscape"
   width="675.46301"
   height="136.967"
   version="1.1"
   id="svg12"
   sodipodi:docname="ae_512x512_adaept_tpeada_mirror_new.svg"
   inkscape:version="0.92.3 (2405546, 2018-03-11)">
  <metadata
     id="metadata18">
    <rdf:RDF>
      <cc:Work
         rdf:about="">
        <dc:format>image/svg+xml</dc:format>
        <dc:type
           rdf:resource="http://purl.org/dc/dcmitype/StillImage" />
        <dc:title></dc:title>
      </cc:Work>
    </rdf:RDF>
  </metadata>
  <defs
     id="defs16" />
  <sodipodi:namedview
     pagecolor="#ffffff"
     bordercolor="#666666"
     borderopacity="1"
     objecttolerance="10"
     gridtolerance="10"
     guidetolerance="10"
     inkscape:pageopacity="0"
     inkscape:pageshadow="2"
     inkscape:window-width="1600"
     inkscape:window-height="837"
     id="namedview14"
     showgrid="false"
     inkscape:zoom="2.6074563"
     inkscape:cx="212.67313"
     inkscape:cy="86.972876"
     inkscape:window-x="-8"
     inkscape:window-y="-8"
     inkscape:window-maximized="1"
     inkscape:current-layer="svg12"
     inkscape:snap-global="false" />
  <path
     id="at"
     d="m 67.427151,1.502 c -36.47559,0 -66.0454877,29.916 -66.0454877,66.816 0,5.948 1.0159782,11.61 2.4580754,17.099 H 31.109383 c -2.39396,-5.2 -3.82718,-10.939 -3.82718,-17.052 0,-22.406 17.953223,-40.567 40.100561,-40.567 22.148325,0 40.099576,18.161 40.099576,40.567 0,22.382 -17.915741,40.523 -40.031515,40.561 v 26.208 c 15.294911,0 29.348947,-5.295 40.542465,-14.13 v 14.46 h 25.52768 V 69.07 h -0.0474 v -0.752 c 0,-36.9 -29.57089,-66.816 -66.045491,-66.816 z"
     inkscape:connector-curvature="0"
     style="fill:none;stroke:#000000;stroke-width:1.48975492" />
  <path
     id="dp"
     d="m 202.78,135.95578 c -37.35387,0 -67.63858,-30.06655 -67.63858,-67.151564 0,-37.084023 30.28471,-67.1505656 67.63858,-67.1505656 15.67336,0 30.0737,5.320008 41.54297,14.2049086 V 1.3236966 h 26.14361 V 68.049893 h -0.049 v 0.755316 c 0,37.084021 -30.28471,67.150571 -67.63858,67.150571 z m -0.049,-26.42613 c 22.68153,0 41.06796,-18.254786 41.06796,-40.772145 0,-22.517358 -18.38543,-40.772151 -41.06796,-40.772151 -22.68053,0 -41.06796,18.254793 -41.06796,40.772151 0,22.517359 18.38743,40.772145 41.06796,40.772145 z"
     inkscape:connector-curvature="0"
     style="fill:none;stroke:#000000;stroke-width:1.49538779" />
  <path
     id="pd"
     d="m 472.15027,1.1575683 c 37.72481,0 68.31209,30.0757417 68.31209,67.1711127 0,37.095379 -30.58728,67.171119 -68.3131,67.171119 -15.82943,0 -30.37315,-5.32166 -41.95662,-14.20827 v 14.53931 H 403.7897 V 69.084228 h 0.0485 v -0.755547 c 0,-37.095371 30.58627,-67.1711127 68.3131,-67.1711127 z m 0.0485,26.4342047 c -22.90637,0 -41.47689,18.259383 -41.47689,40.784625 0,22.524249 18.5695,40.783632 41.47689,40.783632 22.90637,0 41.47689,-18.259383 41.47689,-40.783632 0,-22.525242 -18.5695,-40.784625 -41.47689,-40.784625 z"
     inkscape:connector-curvature="0"
     style="fill:none;stroke:#000000;stroke-width:1.50304437" />
  <path
     id="ta"
     d="m 608.24998,135.97032 c 36.57068,0 66.21944,-30.02885 66.21944,-67.068039 0,-5.971441 -1.01866,-11.653794 -2.46455,-17.164503 h -27.34146 c 2.40026,5.219615 3.83725,10.981266 3.83725,17.117325 0,22.490518 -18.00149,40.720027 -40.20716,40.720027 -22.20566,0 -40.20419,-18.229509 -40.20419,-40.720027 0,-22.466427 17.96293,-40.675856 40.13595,-40.715003 V 1.8342448 c -15.3342,0 -29.42624,5.3149732 -40.64825,14.1832992 V 1.503 H 541.9821 v 66.64344 h 0.0475 v 0.755841 c 0,37.039189 29.64777,67.068039 66.21844,67.068039 z"
     inkscape:connector-curvature="0"
     style="fill:none;stroke:#000000;stroke-width:1.49452627" />
  <g
     id="g858"
     transform="matrix(0.25917291,0,0,0.26294189,270.75269,1.765824)"
     style="fill:none;stroke:#000000;stroke-width:5.88019514;stroke-miterlimit:4;stroke-dasharray:none;stroke-opacity:1">
    <path
       sodipodi:nodetypes="cccccccccccccccsccccs"
       inkscape:connector-curvature="0"
       id="path2-7"
       d="M 263.70016,-1.7885154 C 141.67349,-2.6119941 3.7386244,107.99076 4.54089,260.98232 c 22.95,-145.395 169.40559,-227.897164 259.23059,-227.572164 119.58,0.265 211.72071,93.846484 211.76951,214.521484 -21.26952,63.16873 -89.66594,108.66845 -158.49807,96.46484 -34.37,-8.36 -34.64156,-33.80632 -35.35156,-61.86132 20.5,-0.39 41.66007,2.10078 60.58007,0.42578 53.395,-8.19499 88.7004,-26.1693 89.6504,-81.5293 -1.35001,-42.74 -33.13493,-75.17984 -71.79493,-75.71484 -43.525,0.225 -74.80484,19.35898 -99.83984,48.58398 l -8.11914,160.08594 c 23.115,34.2 43.64953,41.69469 88.39453,41.30469 l 0.004,0.004 C 425.04919,375.44552 496.97295,311.18288 507.91409,247.70518 506.32617,124.24508 415.33869,3.2981251 263.70016,-1.7885154 Z M 351.02344,163.35938 c 11.01888,-0.0372 21.58437,3.05968 30.86914,10.73242 14.33,15.705 15.75922,42.19015 1.94922,56.78515 -27.885,27.655 -66.81539,20.2043 -99.65039,21.2793 -0.2552,-19.07868 -2.03893,-38.05139 -8.10352,-54.99023 20.19727,-16.05586 48.83819,-33.71864 74.93555,-33.80664 z"
       style="fill:none;fill-opacity:1;stroke:#000000;stroke-width:5.88019514;stroke-miterlimit:4;stroke-dasharray:none;stroke-opacity:1" />
    <path
       sodipodi:nodetypes="cccccccccccccccsccccs"
       inkscape:connector-curvature="0"
       id="path2-7-4"
       d="m 248.75482,510.47601 c 122.02668,0.82348 259.96154,-109.77927 259.15927,-262.77083 -22.95,145.395 -169.40558,227.89716 -259.23059,227.57216 -119.58,-0.265 -211.72071,-93.84648 -211.76951,-214.52148 21.26952,-63.16873 89.66594,-108.66845 158.49807,-96.46484 34.37,8.36 34.64156,33.80632 35.35156,61.86132 -20.5,0.39 -41.66007,-2.10078 -60.58007,-0.42578 -53.395,8.19499 -88.7004,26.1693 -89.6504,81.5293 1.35001,42.74 33.13493,75.17984 71.79493,75.71484 43.525,-0.225 74.80484,-19.35898 99.83984,-48.58398 l 8.11914,-160.08594 c -23.115,-34.2 -43.64953,-41.69469 -88.39453,-41.30469 l -0.004,-0.004 C 87.40579,133.24198 15.48203,197.50462 4.54089,260.98232 6.12881,384.44242 97.11629,505.38937 248.75482,510.47601 Z M 161.43154,345.32812 c -11.01888,0.0372 -21.58437,-3.05968 -30.86914,-10.73242 -14.33,-15.705 -15.75922,-42.19015 -1.94922,-56.78515 27.885,-27.655 66.81539,-20.2043 99.65039,-21.2793 0.2552,19.07868 2.03893,38.05139 8.10352,54.99023 -20.19727,16.05586 -48.83819,33.71864 -74.93555,33.80664 z"
       style="fill:none;fill-opacity:1;stroke:#000000;stroke-width:5.88019514;stroke-miterlimit:4;stroke-dasharray:none;stroke-opacity:1" />
  </g>
</svg>
