<?xml version="1.0" encoding="UTF-8" standalone="no"?>
<svg
   xmlns:dc="http://purl.org/dc/elements/1.1/"
   xmlns:cc="http://creativecommons.org/ns#"
   xmlns:rdf="http://www.w3.org/1999/02/22-rdf-syntax-ns#"
   xmlns:svg="http://www.w3.org/2000/svg"
   xmlns="http://www.w3.org/2000/svg"
   xmlns:sodipodi="http://sodipodi.sourceforge.net/DTD/sodipodi-0.dtd"
   xmlns:inkscape="http://www.inkscape.org/namespaces/inkscape"
   width="512"
   height="512"
   version="1.1"
   id="svg6"
   sodipodi:docname="ae_512x512_inks-NEW-FOR-MIRROR.svg"
   inkscape:version="0.92.3 (2405546, 2018-03-11)">
  <metadata
     id="metadata12">
    <rdf:RDF>
      <cc:Work
         rdf:about="">
        <dc:format>image/svg+xml</dc:format>
        <dc:type
           rdf:resource="http://purl.org/dc/dcmitype/StillImage" />
        <dc:title></dc:title>
      </cc:Work>
    </rdf:RDF>
  </metadata>
  <defs
     id="defs10" />
  <sodipodi:namedview
     pagecolor="#ffffff"
     bordercolor="#666666"
     borderopacity="1"
     objecttolerance="10"
     gridtolerance="10"
     guidetolerance="10"
     inkscape:pageopacity="0"
     inkscape:pageshadow="2"
     inkscape:window-width="1600"
     inkscape:window-height="837"
     id="namedview8"
     showgrid="false"
     showguides="true"
     inkscape:guide-bbox="true"
     inkscape:zoom="0.921875"
     inkscape:cx="26.576271"
     inkscape:cy="218.77374"
     inkscape:window-x="-8"
     inkscape:window-y="-8"
     inkscape:window-maximized="1"
     inkscape:current-layer="svg6">
    <sodipodi:guide
       position="263.85869,483.6131"
       orientation="1,0"
       id="guide839"
       inkscape:locked="false" />
  </sodipodi:namedview>
  <g
     id="g858"
     transform="matrix(1.0012313,0,0,0.98384914,-0.54298293,5.7641229)">
    <path
       sodipodi:nodetypes="cccccccccccccccsccccs"
       inkscape:connector-curvature="0"
       id="path2-7"
       d="M 263.70016,-1.7885154 C 141.67349,-2.6119941 3.7386244,107.99076 4.54089,260.98232 c 22.95,-145.395 169.40559,-227.897164 259.23059,-227.572164 119.58,0.265 211.72071,93.846484 211.76951,214.521484 -21.26952,63.16873 -89.66594,108.66845 -158.49807,96.46484 -34.37,-8.36 -34.64156,-33.80632 -35.35156,-61.86132 20.5,-0.39 41.66007,2.10078 60.58007,0.42578 53.395,-8.19499 88.7004,-26.1693 89.6504,-81.5293 -1.35001,-42.74 -33.13493,-75.17984 -71.79493,-75.71484 -43.525,0.225 -74.80484,19.35898 -99.83984,48.58398 l -8.11914,160.08594 c 23.115,34.2 43.64953,41.69469 88.39453,41.30469 l 0.004,0.004 C 425.04919,375.44552 496.97295,311.18288 507.91409,247.70518 506.32617,124.24508 415.33869,3.2981251 263.70016,-1.7885154 Z M 351.02344,163.35938 c 11.01888,-0.0372 21.58437,3.05968 30.86914,10.73242 14.33,15.705 15.75922,42.19015 1.94922,56.78515 -27.885,27.655 -66.81539,20.2043 -99.65039,21.2793 -0.2552,-19.07868 -2.03893,-38.05139 -8.10352,-54.99023 20.19727,-16.05586 48.83819,-33.71864 74.93555,-33.80664 z"
       style="fill:#309400;fill-opacity:1" />
    <path
       sodipodi:nodetypes="cccccccccccccccsccccs"
       inkscape:connector-curvature="0"
       id="path2-7-4"
       d="m 248.75482,510.47601 c 122.02668,0.82348 259.96154,-109.77927 259.15927,-262.77083 -22.95,145.395 -169.40558,227.89716 -259.23059,227.57216 -119.58,-0.265 -211.72071,-93.84648 -211.76951,-214.52148 21.26952,-63.16873 89.66594,-108.66845 158.49807,-96.46484 34.37,8.36 34.64156,33.80632 35.35156,61.86132 -20.5,0.39 -41.66007,-2.10078 -60.58007,-0.42578 -53.395,8.19499 -88.7004,26.1693 -89.6504,81.5293 1.35001,42.74 33.13493,75.17984 71.79493,75.71484 43.525,-0.225 74.80484,-19.35898 99.83984,-48.58398 l 8.11914,-160.08594 c -23.115,-34.2 -43.64953,-41.69469 -88.39453,-41.30469 l -0.004,-0.004 C 87.40579,133.24198 15.48203,197.50462 4.54089,260.98232 6.12881,384.44242 97.11629,505.38937 248.75482,510.47601 Z M 161.43154,345.32812 c -11.01888,0.0372 -21.58437,-3.05968 -30.86914,-10.73242 -14.33,-15.705 -15.75922,-42.19015 -1.94922,-56.78515 27.885,-27.655 66.81539,-20.2043 99.65039,-21.2793 0.2552,19.07868 2.03893,38.05139 8.10352,54.99023 -20.19727,16.05586 -48.83819,33.71864 -74.93555,33.80664 z"
       style="fill:#c63000;fill-opacity:1" />
  </g>
</svg>
