<?xml version="1.0" encoding="UTF-8" standalone="no"?>
<svg xmlns="http://www.w3.org/2000/svg" width="675.463" height="136.967">
  <path d="M67.427 1.502c-36.475 0-66.045 29.916-66.045 66.816 0 5.948 1.016 11.61 2.458 17.099h27.27c-2.395-5.2-3.828-10.939-3.828-17.052 0-22.406 17.953-40.567 40.1-40.567 22.15 0 40.1 18.161 40.1 40.567 0 22.382-17.915 40.523-40.031 40.561v26.208c15.295 0 29.349-5.295 40.542-14.13v14.46h25.528V69.07h-.047v-.752c0-36.9-29.571-66.816-66.046-66.816z" fill="none" stroke="#000" stroke-width="1.49"/>
  <path d="M202.78 135.956c-37.354 0-67.639-30.067-67.639-67.152 0-37.084 30.285-67.15 67.639-67.15 15.673 0 30.074 5.32 41.543 14.205V1.324h26.144V68.05h-.05v.755c0 37.084-30.284 67.15-67.638 67.15zm-.049-26.426c22.682 0 41.068-18.255 41.068-40.772 0-22.518-18.385-40.773-41.068-40.773-22.68 0-41.068 18.255-41.068 40.773 0 22.517 18.387 40.772 41.068 40.772z" fill="none" stroke="#000" stroke-width="1.495"/>
  <path d="M472.15 1.158c37.725 0 68.312 30.075 68.312 67.17 0 37.096-30.587 67.172-68.313 67.172-15.83 0-30.373-5.322-41.956-14.208v14.539H403.79V69.084h.048v-.755c0-37.096 30.586-67.171 68.313-67.171zm.049 26.434c-22.907 0-41.477 18.26-41.477 40.784 0 22.525 18.57 40.784 41.477 40.784 22.906 0 41.477-18.26 41.477-40.784 0-22.525-18.57-40.784-41.477-40.784z" fill="none" stroke="#000" stroke-width="1.503"/>
  <path d="M608.25 135.97c36.57 0 66.22-30.029 66.22-67.068 0-5.971-1.02-11.654-2.465-17.164h-27.342c2.4 5.22 3.838 10.981 3.838 17.117 0 22.49-18.002 40.72-40.207 40.72-22.206 0-40.205-18.23-40.205-40.72 0-22.466 17.963-40.676 40.136-40.715V1.834c-15.334 0-29.426 5.315-40.648 14.184V1.503h-25.595v66.643h.048v.756c0 37.04 29.647 67.068 66.218 67.068z" fill="none" stroke="#000" stroke-width="1.495"/>
  <path d="M339.097 1.296c-31.626-.217-67.375 28.865-67.167 69.093 5.948-38.23 43.905-59.924 67.185-59.838 30.992.07 54.872 24.676 54.885 56.406-5.512 16.61-23.239 28.574-41.078 25.365-8.908-2.198-8.979-8.889-9.163-16.266 5.314-.102 10.798.553 15.701.112 13.839-2.155 22.989-6.88 23.235-21.437-.35-11.238-8.588-19.768-18.607-19.909-11.28.06-19.388 5.09-25.876 12.775l-2.104 42.093c5.99 8.993 11.313 10.963 22.91 10.86v.002c21.896-.066 40.537-16.963 43.372-33.654-.411-32.463-23.993-64.265-63.293-65.602zm22.631 43.424c2.856-.01 5.595.804 8 2.822 3.715 4.13 4.085 11.093.506 14.931-7.227 7.272-17.317 5.313-25.827 5.595-.066-5.016-.528-10.005-2.1-14.459 5.235-4.222 12.658-8.866 19.421-8.89z" fill="none" stroke="#000" stroke-width="1.535"/>
  <path d="M335.223 135.991c31.626.217 67.375-28.865 67.167-69.093-5.948 38.23-43.905 59.924-67.185 59.838-30.992-.07-54.873-24.676-54.885-56.407 5.512-16.61 23.239-28.573 41.078-25.364 8.908 2.198 8.978 8.889 9.162 16.266-5.313.102-10.797-.553-15.7-.112-13.839 2.155-22.99 6.88-23.235 21.437.35 11.238 8.587 19.768 18.607 19.909 11.28-.06 19.387-5.09 25.876-12.775l2.104-42.093c-5.99-8.993-11.313-10.963-22.91-10.86v-.002c-21.896.066-40.537 16.963-43.372 33.654.411 32.463 23.993 64.265 63.293 65.602zm-22.632-43.424c-2.855.01-5.594-.804-8-2.822-3.714-4.13-4.084-11.094-.505-14.931 7.227-7.272 17.316-5.313 25.826-5.595.067 5.016.529 10.005 2.1 14.459-5.234 4.222-12.657 8.866-19.42 8.89z" fill="none" stroke="#000" stroke-width="1.535"/>
</svg>
