<?xml version="1.0" encoding="UTF-8" standalone="no"?>
<svg xmlns="http://www.w3.org/2000/svg" width="512" height="512">
  <path d="M263.482 4.004C141.305 3.194 3.2 112.011 4.003 262.531 26.982 119.485 173.618 38.315 263.553 38.635c119.728.26 211.982 92.33 212.03 211.056-21.295 62.149-89.776 106.914-158.693 94.907-34.412-8.225-34.684-33.26-35.395-60.862 20.525-.384 41.712 2.067 60.655.419 53.46-8.063 88.81-25.747 89.76-80.213-1.351-42.05-33.175-73.965-71.883-74.492-43.578.222-74.897 19.047-99.962 47.8l-8.13 157.5c23.144 33.648 43.704 41.021 88.504 40.638l.004.004c84.587-.246 156.599-63.47 167.554-125.923-1.59-121.466-92.69-240.46-244.515-245.465zm87.43 162.481c11.033-.036 21.612 3.01 30.908 10.56 14.347 15.45 15.778 41.508 1.951 55.867-27.919 27.209-66.897 19.878-99.773 20.936-.255-18.77-2.041-37.437-8.113-54.102 20.222-15.797 48.898-33.174 75.028-33.26z" fill="#169b62"/>
  <path d="M248.518 507.996c122.177.81 260.282-108.007 259.479-258.527-22.979 143.046-169.615 224.216-259.55 223.896-119.728-.26-211.982-92.33-212.03-211.056 21.295-62.149 89.776-106.914 158.693-94.907 34.412 8.225 34.684 33.26 35.395 60.862-20.525.384-41.712-2.067-60.655-.419-53.46 8.063-88.81 25.747-89.76 80.213 1.351 42.05 33.175 73.965 71.883 74.492 43.578-.222 74.897-19.047 99.962-47.8l8.13-157.5c-23.144-33.648-43.704-41.021-88.504-40.638l-.004-.004c-84.587.246-156.599 63.47-167.554 125.923 1.59 121.466 92.69 240.46 244.515 245.465zm-87.43-162.481c-11.033.036-21.612-3.01-30.908-10.56-14.347-15.45-15.778-41.508-1.951-55.867 27.919-27.209 66.897-19.878 99.773-20.936.255 18.77 2.041 37.437 8.113 54.102-20.222 15.797-48.898 33.174-75.028 33.26z" fill="#ed2939"/>
</svg>
